<svg xmlns="http://www.w3.org/2000/svg" viewBox="0 0 1033 392"><defs><style>.cls-1{fill:none;}.cls-2{fill:#fff;opacity:0.2;}</style></defs><g id="Layer_2" data-name="Layer 2"><g id="layer_1-2" data-name="layer 1"><rect id="scene" class="cls-1" width="1033" height="392"/><g id="clouds"><polygon class="cls-2" points="535 240 533 240 533 239 531 239 531 238 530 238 530 237 528 237 528 236 527 236 527 235 525 235 525 234 523 234 523 233 522 233 522 232 520 232 520 231 518 231 518 230 515 230 515 229 512 229 512 228 508 228 508 227 500 227 500 226 483 226 483 227 462 227 462 226 458 226 458 225 457 225 457 224 456 224 456 222 455 222 455 220 454 220 454 219 452 219 452 218 450 218 450 217 443 217 443 218 434 218 434 219 427 219 427 220 422 220 422 221 416 221 416 222 398 222 398 221 394 221 394 220 392 220 392 219 390 219 390 218 388 218 388 217 387 217 387 216 385 216 385 215 384 215 384 214 383 214 383 213 382 213 382 212 381 212 381 211 378 211 378 210 374 210 374 209 371 209 371 208 367 208 367 209 357 209 357 210 350 210 350 211 344 211 344 212 337 212 337 213 333 213 333 214 330 214 330 215 327 215 327 216 323 216 323 217 319 217 319 218 316 218 316 219 313 219 313 220 310 220 310 221 307 221 307 222 304 222 304 223 302 223 302 224 299 224 299 225 296 225 296 226 294 226 294 227 292 227 292 228 290 228 290 229 288 229 288 230 285 230 285 231 283 231 283 232 281 232 281 233 278 233 278 234 276 234 276 235 274 235 274 236 271 236 271 237 268 237 268 238 265 238 265 239 257 239 257 238 254 238 254 237 252 237 252 236 250 236 250 235 248 235 248 234 245 234 245 233 241 233 241 234 237 234 237 235 234 235 234 236 231 236 231 237 229 237 229 238 217 238 217 237 214 237 214 236 213 236 213 235 212 235 212 234 210 234 210 233 209 233 209 232 207 232 207 231 206 231 206 230 205 230 205 229 204 229 204 228 203 228 203 227 201 227 201 226 200 226 200 225 199 225 199 224 197 224 197 223 195 223 195 222 193 222 193 221 189 221 189 220 185 220 185 219 167 219 167 220 160 220 160 221 155 221 155 222 151 222 151 223 147 223 147 224 143 224 143 225 136 225 136 226 131 226 131 227 117 227 117 226 110 226 110 225 106 225 106 224 103 224 103 223 101 223 101 222 99 222 99 221 97 221 97 220 96 220 96 219 94 219 94 218 93 218 93 217 92 217 92 215 91 215 91 214 90 214 90 213 89 213 89 212 88 212 88 210 87 210 87 206 86 206 86 205 85 205 85 204 84 204 84 203 83 203 83 202 82 202 82 201 78 201 78 202 75 202 75 203 73 203 73 204 71 204 71 205 70 205 70 206 69 206 69 207 66 207 66 208 64 208 64 209 62 209 62 210 56 210 56 209 53 209 53 208 52 208 52 207 51 207 51 206 50 206 50 205 49 205 49 204 48 204 48 203 47 203 47 202 46 202 46 201 45 201 45 200 43 200 43 199 42 199 42 198 40 198 40 197 36 197 36 196 31 196 31 195 19 195 19 196 13 196 13 197 8 197 8 198 3 198 3 199 0 199 0 236 5 236 5 235 12 235 12 234 19 234 19 233 26 233 26 232 33 232 33 231 41 231 41 230 47 230 47 229 54 229 54 228 61 228 61 227 69 227 69 226 75 226 75 225 79 225 79 224 82 224 82 225 81 225 81 226 80 226 80 229 81 229 81 230 82 230 82 231 83 231 83 232 85 232 85 233 87 233 87 234 93 234 93 235 124 235 124 234 135 234 135 233 143 233 143 232 148 232 148 231 154 231 154 230 158 230 158 229 161 229 161 228 166 228 166 227 170 227 170 226 178 226 178 225 182 225 182 226 185 226 185 227 188 227 188 228 189 228 189 229 190 229 190 230 191 230 191 234 190 234 190 235 193 235 193 234 196 234 196 235 198 235 198 236 199 236 199 237 200 237 200 244 201 244 201 247 202 247 202 248 203 248 203 249 205 249 205 250 209 250 209 251 227 251 227 250 232 250 232 249 240 249 240 248 247 248 247 247 252 247 252 246 258 246 258 245 263 245 263 244 268 244 268 243 271 243 271 242 274 242 274 241 277 241 277 240 280 240 280 239 283 239 283 238 286 238 286 237 288 237 288 236 290 236 290 235 292 235 292 234 294 234 294 233 295 233 295 232 297 232 297 231 299 231 299 230 300 230 300 229 302 229 302 228 304 228 304 227 305 227 305 226 307 226 307 225 309 225 309 224 312 224 312 223 315 223 315 222 318 222 318 221 322 221 322 220 327 220 327 219 335 219 335 218 345 218 345 217 362 217 362 218 366 218 366 219 369 219 369 220 370 220 370 221 372 221 372 222 374 222 374 223 375 223 375 224 377 224 377 225 379 225 379 226 381 226 381 227 385 227 385 228 393 228 393 229 404 229 404 228 414 228 414 227 419 227 419 226 424 226 424 225 430 225 430 226 432 226 432 227 434 227 434 228 436 228 436 229 437 229 437 231 439 231 439 232 455 232 455 231 459 231 459 230 465 230 465 229 475 229 475 228 479 228 479 229 485 229 485 230 491 230 491 231 496 231 496 232 500 232 500 233 503 233 503 234 506 234 506 235 509 235 509 236 512 236 512 237 514 237 514 238 516 238 516 239 519 239 519 240 522 240 522 241 524 241 524 242 526 242 526 243 529 243 529 244 534 244 534 243 536 243 536 241 535 241 535 240"/><polygon class="cls-2" points="1032 44 1031 44 1031 45 1029 45 1029 46 1027 46 1027 47 1026 47 1026 48 1025 48 1025 49 1023 49 1023 50 1022 50 1022 51 1021 51 1021 52 1019 52 1019 53 1017 53 1017 54 1016 54 1016 55 1015 55 1015 56 1013 56 1013 57 1011 57 1011 58 1010 58 1010 59 1009 59 1009 60 1008 60 1008 61 1007 61 1007 62 1006 62 1006 63 1004 63 1004 64 1003 64 1003 65 1002 65 1002 66 1001 66 1001 67 999 67 999 68 998 68 998 69 997 69 997 70 996 70 996 71 995 71 995 72 993 72 993 73 992 73 992 74 990 74 990 75 989 75 989 76 988 76 988 77 987 77 987 78 985 78 985 79 984 79 984 80 983 80 983 81 981 81 981 82 980 82 980 83 978 83 978 84 976 84 976 85 975 85 975 86 973 86 973 87 971 87 971 88 970 88 970 89 968 89 968 90 966 90 966 91 964 91 964 92 962 92 962 93 959 93 959 94 957 94 957 95 953 95 953 96 949 96 949 97 945 97 945 98 935 98 935 99 906 99 906 100 896 100 896 101 890 101 890 102 886 102 886 103 882 103 882 104 879 104 879 105 876 105 876 106 872 106 872 107 869 107 869 108 867 108 867 109 863 109 863 110 859 110 859 111 855 111 855 112 851 112 851 113 847 113 847 114 839 114 839 115 827 115 827 114 816 114 816 113 809 113 809 112 802 112 802 111 796 111 796 110 789 110 789 109 778 109 778 108 773 108 773 109 763 109 763 110 759 110 759 111 755 111 755 112 752 112 752 113 749 113 749 114 747 114 747 115 745 115 745 116 743 116 743 117 741 117 741 118 739 118 739 119 738 119 738 120 736 120 736 121 734 121 734 122 733 122 733 123 731 123 731 124 730 124 730 125 728 125 728 126 727 126 727 127 725 127 725 128 724 128 724 129 723 129 723 130 721 130 721 131 720 131 720 132 719 132 719 133 717 133 717 134 716 134 716 135 715 135 715 136 713 136 713 137 712 137 712 138 711 138 711 139 710 139 710 140 708 140 708 141 706 141 706 142 705 142 705 143 703 143 703 144 702 144 702 145 700 145 700 146 699 146 699 147 697 147 697 148 696 148 696 149 694 149 694 150 693 150 693 151 691 151 691 152 689 152 689 153 687 153 687 154 686 154 686 155 684 155 684 156 682 156 682 157 679 157 679 158 677 158 677 159 675 159 675 160 673 160 673 161 671 161 671 162 668 162 668 163 667 163 667 164 666 164 666 165 664 165 664 166 662 166 662 167 660 167 660 168 659 168 659 169 658 169 658 170 656 170 656 171 655 171 655 172 654 172 654 173 653 173 653 174 652 174 652 175 651 175 651 176 650 176 650 178 649 178 649 179 648 179 648 182 647 182 647 183 646 183 646 185 645 185 645 189 644 189 644 199 645 199 645 202 646 202 646 204 647 204 647 205 648 205 648 206 649 206 649 207 650 207 650 208 651 208 651 210 645 210 645 211 639 211 639 212 635 212 635 213 631 213 631 214 628 214 628 215 625 215 625 216 623 216 623 217 620 217 620 218 617 218 617 219 614 219 614 220 612 220 612 221 610 221 610 222 609 222 609 223 606 223 606 224 604 224 604 225 603 225 603 226 601 226 601 227 599 227 599 228 598 228 598 229 596 229 596 230 595 230 595 231 594 231 594 232 592 232 592 233 590 233 590 234 589 234 589 235 588 235 588 236 590 236 590 235 592 235 592 234 594 234 594 233 597 233 597 232 598 232 598 231 600 231 600 230 602 230 602 229 604 229 604 228 606 228 606 227 607 227 607 226 609 226 609 225 611 225 611 224 613 224 613 223 615 223 615 222 618 222 618 221 622 221 622 220 627 220 627 219 632 219 632 218 638 218 638 217 643 217 643 216 647 216 647 215 650 215 650 214 653 214 653 213 655 213 655 212 657 212 657 211 659 211 659 210 660 210 660 209 661 209 661 208 662 208 662 207 663 207 663 201 662 201 662 200 661 200 661 199 660 199 660 198 659 198 659 197 658 197 658 196 656 196 656 195 652 195 652 193 651 193 651 191 650 191 650 189 649 189 649 187 648 187 648 185 649 185 649 183 650 183 650 180 651 180 651 178.242 651.167 178 652 178 652 177 653 177 653 176 654 176 654 175 655 175 655 173 657 173 657 172 658 172 658 171 659 171 659 170 661 170 661 169 663 169 663 168 666 168 666 167 669 167 669 166 672 166 672 165 675 165 675 164 678 164 678 163 680 163 680 162 682 162 682 161 684 161 684 160 685 160 685 159 687 159 687 158 688 158 688 157 689 157 689 156 690 156 690 155 691 155 691 154 692 154 692 153 693 153 693 152 694 152 694 151 696 151 696 150 698 150 698 149 699 149 699 148 700 148 700 147 702 147 702 146 704 146 704 145 706 145 706 144 709 144 709 143 711 143 711 142 714 142 714 141 718 141 718 140 722 140 722 139 726 139 726 138 730 138 730 137 735 137 735 136 740 136 740 135 744 135 744 134 747 134 747 133 750 133 750 132 752 132 752 131 755 131 755 130 757 130 757 129 759 129 759 128 760 128 760 127 763 127 763 126 764 126 764 125 767 125 767 124 769 124 769 123 772 123 772 122 774 122 774 121 777 121 777 120 780 120 780 119 786 119 786 118 795 118 795 119 802 119 802 120 807 120 807 121 811 121 811 122 815 122 815 123 821 123 821 124 844 124 844 123 849 123 849 122 853 122 853 121 858 121 858 120 861 120 861 119 864 119 864 118 867 118 867 117 870 117 870 116 872 116 872 115 874 115 874 114 877 114 877 113 880 113 880 112 883 112 883 111 886 111 886 110 889 110 889 109 892 109 892 108 896 108 896 107 906 107 906 106 921 106 921 105 926 105 926 104 929 104 929 103 932 103 932 102 936 102 936 101 958 101 958 100 966 100 966 99 973 99 973 98 978 98 978 97 984 97 984 96 988 96 988 95 992 95 992 94 996 94 996 93 999 93 999 92 1001 92 1001 91 1003 91 1003 90 1006 90 1006 89 1008 89 1008 88 1009 88 1009 87 1010 87 1010 86 1012 86 1012 85 1014 85 1014 83 1015 83 1015 82 1016 82 1016 80 1017 80 1017 78 1018 78 1018 72 1017 72 1017 69 1016 69 1016 66 1015 66 1015 65 1014 65 1014 62 1013 62 1013 59 1014 59 1014 58 1018 58 1018 57 1020 57 1020 56 1025 56 1025 55 1028 55 1028 54 1033 54 1033 43 1032 43 1032 44"/><polygon class="cls-2" points="1029 19 1029 20 1025 20 1025 21 1022 21 1022 22 1018 22 1018 23 1015 23 1015 24 1011 24 1011 25 1009 25 1009 26 1007 26 1007 27 1005 27 1005 28 1003 28 1003 29 1001 29 1001 30 1000 30 1000 31 998 31 998 32 997 32 997 33 996 33 996 35 995 35 995 39 996 39 996 40 997 40 997 42 999 42 999 43 997 43 997 44 995 44 995 45 993 45 993 46 991 46 991 47 988 47 988 48 986 48 986 49 985 49 985 50 984 50 984 51 983 51 983 52 982 52 982 53 981 53 981 55 980 55 980 57 979 57 979 59 978 59 978 61 977 61 977 63 976 63 976 65 975 65 975 67 974 67 974 69 973 69 973 70 970 70 970 71 963 71 963 72 958 72 958 73 953 73 953 74 949 74 949 75 945 75 945 76 942 76 942 77 939 77 939 78 936 78 936 79 934 79 934 80 932 80 932 81 930 81 930 82 928 82 928 83 926 83 926 84 924 84 924 85 923 85 923 86 922 86 922 87 921 87 921 88 919 88 919 89 895 89 895 88 883 88 883 87 873 87 873 86 864 86 864 85 834 85 834 86 809 86 809 87 791 87 791 88 780 88 780 89 771 89 771 90 763 90 763 91 756 91 756 92 751 92 751 93 746 93 746 94 741 94 741 95 736 95 736 96 731 96 731 97 728 97 728 98 725 98 725 99 721 99 721 100 718 100 718 101 715 101 715 102 712 102 712 103 710 103 710 104 707 104 707 105 704 105 704 106 702 106 702 107 701 107 701 108 699 108 699 109 697 109 697 110 695 110 695 111 693 111 693 112 691 112 691 113 689 113 689 114 688 114 688 115 687 115 687 116 685 116 685 117 684 117 684 118 683 118 683 119 681 119 681 120 680 120 680 121 679 121 679 123 678 123 678 124 677 124 677 127 676 127 676 131 677 131 677 132 678 132 678 134 679 134 679 135 681 135 681 136 683 136 683 137 685 137 685 138 689 138 689 139 702 139 702 138 708 138 708 139 703 139 703 140 700 140 700 141 697 141 697 142 693 142 693 143 689 143 689 144 685 144 685 145 680 145 680 146 674 146 674 147 669 147 669 148 664 148 664 149 658 149 658 150 653 150 653 151 649 151 649 152 645 152 645 153 641 153 641 154 638 154 638 155 635 155 635 156 633 156 633 157 631 157 631 158 628 158 628 159 626 159 626 160 625 160 625 161 623 161 623 162 622 162 622 163 620 163 620 164 619 164 619 165 618 165 618 167 617 167 617 168 616 168 616 176 617 176 617 177 618 177 618 178 619 178 619 179 621 179 621 180 623 180 623 181 625 181 625 182 627 182 627 183 634 183 634 185 633 185 633 188 634 188 634 190 635 190 635 195 634 195 634 196 633 196 633 198 629 198 629 199 626 199 626 200 624 200 624 201 622 201 622 202 619 202 619 203 616 203 616 204 614 204 614 205 612 205 612 206 610 206 610 207 608 207 608 208 607 208 607 209 605 209 605 211 603 211 603 212 602 212 602 214 601 214 601 215 600 215 600 216 599 216 599 221 598 221 598 223 597 223 597 225 596 225 596 226 594 226 594 227 593 227 593 228 591 228 591 229 589 229 589 230 587 230 587 231 585 231 585 232 576 232 576 231 574 231 574 230 572 230 572 229 567 229 567 228 557 228 557 229 550 229 550 228 547 228 547 227 544 227 544 226 542 226 542 225 540 225 540 224 538 224 538 223 535 223 535 222 532 222 532 221 527 221 527 218 526 218 526 216 524 216 524 215 522 215 522 214 520 214 520 213 515 213 515 212 499 212 499 213 496 213 496 214 494 214 494 215 492 215 492 214 493 214 493 212 492 212 492 211 491 211 491 210 486 210 486 209 459 209 459 208 449 208 449 207 443 207 443 206 430 206 430 207 426 207 426 208 420 208 420 207 415 207 415 205 413 205 413 204 412 204 412 203 411 203 411 200 410 200 410 197 409 197 409 194 408 194 408 192 406 192 406 191 405 191 405 190 404 190 404 189 403 189 403 188 400 188 400 187 397 187 397 186 377 186 377 187 373 187 373 188 368 188 368 189 364 189 364 190 360 190 360 191 357 191 357 192 353 192 353 193 349 193 349 194 345 194 345 195 341 195 341 196 338 196 338 197 335 197 335 198 331 198 331 199 328 199 328 200 324 200 324 201 320 201 320 202 317 202 317 203 313 203 313 204 309 204 309 205 306 205 306 206 304 206 304 204 303 204 303 203 302 203 302 202 300 202 300 201 299 201 299 200 295 200 295 199 291 199 291 198 279 198 279 199 273 199 273 200 268 200 268 201 265 201 265 202 264 202 264 203 260 203 260 204 257 204 257 205 254 205 254 206 251 206 251 207 248 207 248 208 245 208 245 209 242 209 242 210 239 210 239 211 236 211 236 212 233 212 233 213 230 213 230 214 227 214 227 215 224 215 224 216 221 216 221 217 218 217 218 218 214 218 214 219 211 219 211 218 208 218 208 217 206 217 206 215 205 215 205 213 204 213 204 212 203 212 203 211 195 211 195 212 190 212 190 211 187 211 187 208 186 208 186 201 185 201 185 199 183 199 183 198 182 198 182 197 168 197 168 198 163 198 163 199 159 199 159 200 155 200 155 201 151 201 151 202 147 202 147 203 142 203 142 204 135 204 135 205 123 205 123 204 118 204 118 203 115 203 115 202 113 202 113 201 112 201 112 200 110 200 110 199 109 199 109 198 108 198 108 196 107 196 107 195 106 195 106 194 105 194 105 193 104 193 104 192 102 192 102 191 97 191 97 190 99 190 99 189 100 189 100 188 101 188 101 187 102 187 102 186 103 186 103 185 104 185 104 184 105 184 105 183 106 183 106 181 107 181 107 179 108 179 108 177 109 177 109 175 110 175 110 172 111 172 111 166 110 166 110 164 109 164 109 162 108 162 108 161 107 161 107 160 105 160 105 159 104 159 104 158 103 158 103 157 100 157 100 156 96 156 96 155 87 155 87 154 68 154 68 155 55 155 55 156 45 156 45 157 38 157 38 158 33 158 33 159 28 159 28 160 22 160 22 161 18 161 18 162 14 162 14 163 10 163 10 164 7 164 7 165 4 165 4 166 1 166 1 167 0 167 0 236 5 236 5 235 12 235 12 234 19 234 19 233 26 233 26 232 33 232 33 231 41 231 41 230 47 230 47 229 54 229 54 228 61 228 61 227 69 227 69 226 75 226 75 225 79 225 79 224 82 224 82 225 81 225 81 226 80 226 80 229 81 229 81 230 82 230 82 231 83 231 83 232 85 232 85 233 87 233 87 234 93 234 93 235 124 235 124 234 135 234 135 233 143 233 143 232 148 232 148 231 154 231 154 230 158 230 158 229 161 229 161 228 166 228 166 227 170 227 170 226 178 226 178 225 182 225 182 226 185 226 185 227 188 227 188 228 189 228 189 229 190 229 190 230 191 230 191 234 190 234 190 235 193 235 193 234 196 234 196 235 198 235 198 236 199 236 199 237 200 237 200 244 201 244 201 247 202 247 202 248 203 248 203 249 205 249 205 250 209 250 209 251 227 251 227 250 232 250 232 249 240 249 240 248 247 248 247 247 252 247 252 246 258 246 258 245 263 245 263 244 268 244 268 243 271 243 271 242 274 242 274 241 277 241 277 240 280 240 280 239 283 239 283 238 286 238 286 237 288 237 288 236 290 236 290 235 292 235 292 234 294 234 294 233 295 233 295 232 297 232 297 231 299 231 299 230 300 230 300 229 302 229 302 228 304 228 304 227 305 227 305 226 307 226 307 225 309 225 309 224 312 224 312 223 315 223 315 222 318 222 318 221 322 221 322 220 327 220 327 219 335 219 335 218 345 218 345 217 362 217 362 218 366 218 366 219 369 219 369 220 370 220 370 221 372 221 372 222 374 222 374 223 375 223 375 224 377 224 377 225 379 225 379 226 381 226 381 227 385 227 385 228 393 228 393 229 404 229 404 228 414 228 414 227 419 227 419 226 424 226 424 225 430 225 430 226 432 226 432 227 434 227 434 228 436 228 436 229 437 229 437 231 439 231 439 232 455 232 455 231 459 231 459 230 465 230 465 229 475 229 475 228 479 228 479 229 485 229 485 230 491 230 491 231 496 231 496 232 500 232 500 233 503 233 503 234 506 234 506 235 509 235 509 236 512 236 512 237 514 237 514 238 516 238 516 239 519 239 519 240 522 240 522 241 524 241 524 242 526 242 526 243 529 243 529 244 534 244 534 243 536 243 536 241 546 241 546 240 558 240 558 241 567 241 567 240 574 240 574 239 579 239 579 238 583 238 583 237 587 237 587 236 590 236 590 235 592 235 592 234 594 234 594 233 597 233 597 232 598 232 598 231 600 231 600 230 602 230 602 229 604 229 604 228 606 228 606 227 607 227 607 226 609 226 609 225 611 225 611 224 613 224 613 223 615 223 615 222 618 222 618 221 622 221 622 220 627 220 627 219 632 219 632 218 638 218 638 217 643 217 643 216 647 216 647 215 650 215 650 214 653 214 653 213 655 213 655 212 657 212 657 211 659 211 659 210 660 210 660 209 661 209 661 208 662 208 662 207 663 207 663 201 662 201 662 200 661 200 661 199 660 199 660 198 659 198 659 197 658 197 658 196 656 196 656 195 652 195 652 193 651 193 651 191 650 191 650 189 649 189 649 187 648 187 648 185 649 185 649 183 650 183 650 180 651 180 651 178.242 651.167 178 652 178 652 177 653 177 653 176 654 176 654 175 655 175 655 173 657 173 657 172 658 172 658 171 659 171 659 170 661 170 661 169 663 169 663 168 666 168 666 167 669 167 669 166 672 166 672 165 675 165 675 164 678 164 678 163 680 163 680 162 682 162 682 161 684 161 684 160 685 160 685 159 687 159 687 158 688 158 688 157 689 157 689 156 690 156 690 155 691 155 691 154 692 154 692 153 693 153 693 152 694 152 694 151 696 151 696 150 698 150 698 149 699 149 699 148 700 148 700 147 702 147 702 146 704 146 704 145 706 145 706 144 709 144 709 143 711 143 711 142 714 142 714 141 718 141 718 140 722 140 722 139 726 139 726 138 730 138 730 137 735 137 735 136 740 136 740 135 744 135 744 134 747 134 747 133 750 133 750 132 752 132 752 131 755 131 755 130 757 130 757 129 759 129 759 128 760 128 760 127 763 127 763 126 764 126 764 125 767 125 767 124 769 124 769 123 772 123 772 122 774 122 774 121 777 121 777 120 780 120 780 119 786 119 786 118 795 118 795 119 802 119 802 120 807 120 807 121 811 121 811 122 815 122 815 123 821 123 821 124 844 124 844 123 849 123 849 122 853 122 853 121 858 121 858 120 861 120 861 119 864 119 864 118 867 118 867 117 870 117 870 116 872 116 872 115 874 115 874 114 877 114 877 113 880 113 880 112 883 112 883 111 886 111 886 110 889 110 889 109 892 109 892 108 896 108 896 107 906 107 906 106 921 106 921 105 926 105 926 104 929 104 929 103 932 103 932 102 936 102 936 101 958 101 958 100 966 100 966 99 973 99 973 98 978 98 978 97 984 97 984 96 988 96 988 95 992 95 992 94 996 94 996 93 999 93 999 92 1001 92 1001 91 1003 91 1003 90 1006 90 1006 89 1008 89 1008 88 1009 88 1009 87 1010 87 1010 86 1012 86 1012 85 1014 85 1014 83 1015 83 1015 82 1016 82 1016 80 1017 80 1017 78 1018 78 1018 72 1017 72 1017 69 1016 69 1016 66 1015 66 1015 65 1014 65 1014 62 1013 62 1013 59 1014 59 1014 58 1018 58 1018 57 1020 57 1020 56 1025 56 1025 55 1028 55 1028 54 1033 54 1033 19 1029 19"/></g></g></g></svg>