<svg xmlns="http://www.w3.org/2000/svg" xmlns:xlink="http://www.w3.org/1999/xlink" viewBox="0 0 1033 392"><defs><style>.cls-1{isolation:isolate;}.cls-2{fill:none;}.cls-3{fill:#cc362d;}.cls-4{fill:#ff682d;}.cls-5{fill:#c3320f;}.cls-6{fill:#de3d32;}.cls-7{fill:url(#Áåçûìÿííûé_ãðàäèåíò_50);}.cls-16,.cls-8{opacity:0.48;}.cls-13,.cls-16,.cls-17,.cls-8,.cls-9{mix-blend-mode:multiply;}.cls-8{fill:url(#Áåçûìÿííûé_ãðàäèåíò_95);}.cls-9{fill:#d45ba7;opacity:0.49;}.cls-10{fill:url(#Áåçûìÿííûé_ãðàäèåíò_37);}.cls-11{fill:url(#Áåçûìÿííûé_ãðàäèåíò_39);}.cls-12{fill:url(#Áåçûìÿííûé_ãðàäèåíò_39-2);}.cls-13{fill:#b56053;opacity:0.43;}.cls-14{fill:url(#Áåçûìÿííûé_ãðàäèåíò_39-3);}.cls-15{fill:url(#Áåçûìÿííûé_ãðàäèåíò_39-4);}.cls-16{fill:url(#Áåçûìÿííûé_ãðàäèåíò_95-2);}.cls-17{opacity:0.67;fill:url(#Áåçûìÿííûé_ãðàäèåíò_95-3);}.cls-18{fill:url(#Áåçûìÿííûé_ãðàäèåíò_37-2);}.cls-19{opacity:0.44;fill:url(#Áåçûìÿííûé_ãðàäèåíò_39-5);}</style><linearGradient id="Áåçûìÿííûé_ãðàäèåíò_50" x1="562.102" y1="212.199" x2="369.059" y2="308.72" gradientUnits="userSpaceOnUse"><stop offset="0" stop-color="#ec8500"/><stop offset="0.138" stop-color="#e97e03"/><stop offset="0.332" stop-color="#e06c0a"/><stop offset="0.559" stop-color="#d14e15"/><stop offset="0.809" stop-color="#bd2525"/><stop offset="1" stop-color="#ab0033"/></linearGradient><linearGradient id="Áåçûìÿííûé_ãðàäèåíò_95" x1="560.955" y1="223.486" x2="396.101" y2="305.913" gradientUnits="userSpaceOnUse"><stop offset="0" stop-color="#fff"/><stop offset="0.09" stop-color="#fdf8fb"/><stop offset="0.217" stop-color="#f6e6ee"/><stop offset="0.365" stop-color="#ebc8da"/><stop offset="0.53" stop-color="#dc9ebe"/><stop offset="0.708" stop-color="#c86899"/><stop offset="0.895" stop-color="#b0286e"/><stop offset="1" stop-color="#a20053"/></linearGradient><linearGradient id="Áåçûìÿííûé_ãðàäèåíò_37" x1="342.643" y1="111.527" x2="314.766" y2="367.654" gradientUnits="userSpaceOnUse"><stop offset="0" stop-color="#f90"/><stop offset="0.126" stop-color="#fd9203"/><stop offset="0.303" stop-color="#f7800a"/><stop offset="0.51" stop-color="#ed6217"/><stop offset="0.74" stop-color="#df3828"/><stop offset="0.986" stop-color="#ce033e"/><stop offset="1" stop-color="#cd003f"/></linearGradient><linearGradient id="Áåçûìÿííûé_ãðàäèåíò_39" x1="219.959" y1="294.458" x2="224.156" y2="350.41" gradientUnits="userSpaceOnUse"><stop offset="0.019" stop-color="#ff9123"/><stop offset="1" stop-color="#ffb461"/></linearGradient><linearGradient id="Áåçûìÿííûé_ãðàäèåíò_39-2" x1="374.348" y1="244.024" x2="281.875" y2="343.895" xlink:href="#Áåçûìÿííûé_ãðàäèåíò_39"/><linearGradient id="Áåçûìÿííûé_ãðàäèåíò_39-3" x1="385.705" y1="254.718" x2="293.843" y2="353.93" xlink:href="#Áåçûìÿííûé_ãðàäèåíò_39"/><linearGradient id="Áåçûìÿííûé_ãðàäèåíò_39-4" x1="436.382" y1="232.929" x2="442.773" y2="190.471" xlink:href="#Áåçûìÿííûé_ãðàäèåíò_39"/><linearGradient id="Áåçûìÿííûé_ãðàäèåíò_95-2" x1="250.904" y1="262.235" x2="242.618" y2="407.7" xlink:href="#Áåçûìÿííûé_ãðàäèåíò_95"/><linearGradient id="Áåçûìÿííûé_ãðàäèåíò_95-3" x1="320.427" y1="270.222" x2="312.819" y2="403.79" xlink:href="#Áåçûìÿííûé_ãðàäèåíò_95"/><linearGradient id="Áåçûìÿííûé_ãðàäèåíò_37-2" x1="106.032" y1="237.741" x2="94.27" y2="319.621" xlink:href="#Áåçûìÿííûé_ãðàäèåíò_37"/><linearGradient id="Áåçûìÿííûé_ãðàäèåíò_39-5" x1="307.121" y1="308.224" x2="302.212" y2="278.769" xlink:href="#Áåçûìÿííûé_ãðàäèåíò_39"/></defs><g class="cls-1"><g id="Layer_2" data-name="Layer 2"><g id="layer_1-2" data-name="layer 1"><rect id="scene" class="cls-2" width="1033" height="392"/><g id="surface"><rect class="cls-3" x="118" y="365" width="1" height="1"/><rect class="cls-3" x="119" y="364" width="2" height="1"/><rect class="cls-3" x="121" y="363" width="4" height="1"/><rect class="cls-3" x="125" y="362" width="6" height="1"/><rect class="cls-3" x="131" y="361" width="10" height="1"/><rect class="cls-3" x="141" y="362" width="9" height="1"/><rect class="cls-3" x="150" y="363" width="5" height="1"/><rect class="cls-3" x="155" y="364" width="2" height="1"/><path class="cls-4" d="M155,365v-1h-5v-1h-9v-1H131v1h-6v1h-4v1h-2v1h-1v2h1v1h2v1h2v1h4v1h13v-1h9v-1h4v-1h3v-1h1v-3Z"/><polygon class="cls-5" points="1031 355 1031 354 1021 354 1021 353 1006 353 1006 354 985 354 985 355 959 355 959 356 937 356 937 357 912 357 912 358 889 358 889 359 864 359 864 360 849 360 849 361 833 361 833 362 816 362 816 363 802 363 802 364 592 364 592 363 581 363 581 362 567 362 567 361 556 361 556 360 530 360 530 359 459 359 459 360 431 360 431 361 425 361 425 362 424 362 424 363 430 363 430 362 466 362 466 363 477 363 477 364 491 364 491 365 502 365 502 366 514 366 514 367 521 367 521 368 527 368 527 369 534 369 534 370 542 370 542 371 556 371 556 372 569 372 569 373 622 373 622 372 675 372 675 371 690 371 690 372 709 372 709 373 727 373 727 374 745 374 745 375 765 375 765 376 783 376 783 377 803 377 803 378 817 378 817 380 818 380 818 381 801 381 801 382 791 382 791 383 781 383 781 384 772 384 772 385 761 385 761 386 751 386 751 387 741 387 741 388 730 388 730 389 720 389 720 390 719 390 719 391 729 391 729 390 978 390 978 389 995 389 995 388 1009 388 1009 387 1010 387 1010 386 965 386 965 385 927 385 927 384 905 384 905 383 888 383 888 382 871 382 871 381 857 381 857 378 866 378 866 377 871 377 871 376 876 376 876 375 881 375 881 374 885 374 885 373 890 373 890 372 895 372 895 371 900 371 900 370 904 370 904 369 917 369 917 368 929 368 929 367 942 367 942 366 954 366 954 365 966 365 966 364 979 364 979 363 992 363 992 362 1010 362 1010 363 1021 363 1021 364 1033 364 1033 355 1031 355"/><polygon class="cls-6" points="1030 357 1030 356 1020 356 1020 355 1005 355 1005 356 984 356 984 357 958 357 958 358 936 358 936 359 911 359 911 360 888 360 888 361 863 361 863 362 848 362 848 363 832 363 832 364 815 364 815 365 801 365 801 366 591 366 591 365 580 365 580 364 566 364 566 363 555 363 555 362 529 362 529 361 458 361 458 362 430 362 430 363 424 363 424 364 434 364 434 363 454 363 454 364 465 364 465 365 476 365 476 366 490 366 490 367 501 367 501 368 513 368 513 369 520 369 520 370 526 370 526 371 533 371 533 372 541 372 541 373 555 373 555 374 568 374 568 375 621 375 621 374 674 374 674 373 689 373 689 374 708 374 708 375 726 375 726 376 744 376 744 377 764 377 764 378 782 378 782 379 802 379 802 380 816 380 816 382 817 382 817 383 800 383 800 384 790 384 790 385 780 385 780 386 771 386 771 387 760 387 760 388 750 388 750 389 740 389 740 390 729 390 729 391 719 391 719 392 977 392 977 391 994 391 994 390 1005 390 1005 389 1009 389 1009 388 964 388 964 387 926 387 926 386 904 386 904 385 887 385 887 384 870 384 870 383 857 383 857 380 865 380 865 379 870 379 870 378 875 378 875 377 880 377 880 376 884 376 884 375 889 375 889 374 894 374 894 373 899 373 899 372 903 372 903 371 916 371 916 370 928 370 928 369 941 369 941 368 953 368 953 367 965 367 965 366 978 366 978 365 991 365 991 364 1009 364 1009 365 1020 365 1020 366 1033 366 1033 357 1030 357"/><polygon class="cls-5" points="434 389 434 388 420 388 420 387 407 387 407 386 392 386 392 385 378 385 378 384 361 384 361 383 347 383 347 382 329 382 329 381 311 381 311 380 197 380 197 379 177 379 177 378 155 378 155 377 135 377 135 376 114 376 114 375 92 375 92 374 71 374 71 373 0 373 0 389 34 389 34 388 48 388 48 387 109 387 109 386 159 386 159 387 172 387 172 388 186 388 186 389 194 389 194 390 432 390 432 391 443 391 443 390 444 390 444 389 434 389"/><path class="cls-6" d="M432,391v-1H418v-1H405v-1H390v-1H376v-1H359v-1H345v-1H327v-1H309v-1H195v-1H175v-1H153v-1H133v-1H112v-1H90v-1H69v-1H0v16H32v-1H46v-1h61v-1h50v1h13v1h14v1h8v1H442v-1Z"/></g><g id="overhang"><polygon class="cls-7" points="511 207 476.208 237 280 285 176 285 176 287 177 287 177 289 178 289 178 291 179 291 179 294 180 294 180 296 181 296 181 298 182 298 182 300 183 300 183 302 184 302 184 304 185 304 185 307 186 307 186 310 187 310 187 312 188 312 188 314 189 314 189 317 190 317 190 319 191 319 191 383 461 383 461 313 462 313 462 310 463 310 463 307 464 307 464 304 465 304 465 301 466 301 466 298 467 298 467 295 468 295 468 292 469 292 469 289 470 289 470 286 471 286 471 283 472 283 472 280 473 280 473 277 474 277 474 274 475 274 475 272 476 272 476 269 477 269 477 266 478 266 478 263 479 263 479 260 480 260 480 257 481 257 481 254 482 254 482 251 483 251 483 248 484 248 484 240 485 240 485 239 486 239 486 238 487 238 487 237 488 237 488 236 489 236 489 234 490 234 490 233 491 233 491 232 492 232 492 231 493 231 493 230 494 230 494 228 495 228 495 227 496 227 496 226 497 226 497 225 498 225 498 224 499 224 499 222 500 222 500 221 501 221 501 220 502 220 502 219 503 219 503 218 504 218 504 217 505 217 505 215 506 215 506 214 507 214 507 213 508 213 508 212 509 212 509 211 510 211 510 210 511 210 511 209 512 209 512 208 513 208 513 207 511 207"/><path class="cls-8" d="M511,207l-53.832,24.03L239.347,313.254l3.458,53.616,99.16,19.614L345,372h1v-5h1v-5h1v-5h1v-6h1v-4h1v-5h1v-5h1v-5h1v-6h-1v-5h-1v-5h-1v-3h3v-1h2v-1h3v-1h3v-1h3v-1h3v-1h1v3h1v4h1v3h1v4h1v3h1v3h1v5h1v13h1v14h1v14h1v7h11v-2h1v-9h1v-9h1V350h1v-9h1v-7h1v-2h3v-1h3v-1h3v-1h2v-1h3v-2h1v-2h1v-1h1v-2h1v-1h1v-2h1v-2h1v-1h1v-2h1v-1h1v-2h1v-1h1v-2h1v-2h1v2h-1v10h-1v8h-1v11h1v-2h1v-2h1v-1h1v-2h1v-2h1v-2h1v-1h1v-2h1v-2h1v-2h1v-2h1v-1h1v-2h1v-2h1v-2h1v-1h1v-2h1v-2h1v-1h1v-2h1v-2h1v-2h1v-2h1v-1h1v-2h1v-2h1v-1h1v-4h1v-4h1v-4h1v-5h2v-1h2v-1h1v-1h2v-1h1v-1h1v-1h1v6h1v-1h1v-1h1v-2h1v-1h1v-2h1v-1h1v-2h1v-1h1v-2h1v-1h1v-2h1v-1h1v-2h1v-1h1v-2h1v-1h1v-2h1v-1h1v-2h1v-1h1v-2h1v-1h1v-1h1v-1h1v-1h1v-1h1v-2h1v-1h1v-1h1v-1h1v-1h1v-2h1v-1h1v-1h1v-1h1v-1h1v-2h1v-1h1v-1h1v-1h1v-1h1v-1h1v-2h1v-1h1v-1h1v-1h1v-1h1v-1h1v-1h1v-1h1v-1Z"/><path class="cls-9" d="M460,318v5h-1v8h-1v7h-1v7h-1v3h-1v4h-1v3h-1v3h-1v3h-1v1h-1v1h-1v1h-1v1h-1v1h-1v8H421V340h-1v5h-1v5h-1v3h-1v3h-1v3h-1v4h-1v3h-1v3h-1v3h-1v5l49,3h1V318Z"/><path class="cls-10" d="M628,390v-1h-2v-1h-1v-1h-2v-1h-2v-1h-2v-1h-2v-1h-2v-1h-2v-1h-2v-1h-2v-1h-2v-1h-2v-1h-2v-1h-2v-1h-2v-1h-1v-1h-2v-1h-2v-1h-2v-1h-2v-1h-2v-1h-2v-1h-2v-1h-2v-1H552v1H523v1H494v1H463v1H433v1H405v1H378v1h-5v-1h-4v-1h-4v-1h-5v-1h-4v-1h-4v-1h-4v-1h-5v-1h-4v-1h-4v-1h-4v-1h-4v-1h-4v-1h-4v-1h-4v-1h-4v-1h-4v-1h-4v-1h-4v-1h-4v-1h-5v-1h-4v-1h-4v-1h-5v-1h-4v-1h-4v-1h-3v-6h2v-1h8v-1h8v-1h9v-1h9v-1h8v-1h9v-1h8v-1h9v-1h8v-1h9v-1h1V308h2v-1h1v-1h1v-1h1v-1h2v-1h1v-1h1v-1h1v-1h2v-1h1v-1h1v-1h2v-1h1v-1h2v-1h1v-1h2v-1h1v-1h2v-1h1v-1h2v-1h1v-1h2v-1h1v-1h2v-1h1v-1h2v-1h1v-1h2v-1h1v-1h2v-1h1v-1h1v-1h4v-1h10v-1h10v-1h10v-1h3v-1h1v-1h2v-1h1v-1h1v-1h1v-1h2v-1h1v-1h1v-1h1v-1h1v-1h1v-1h2v-1h1v-1h1v-1h1v-1h2v-1h1v-1h1v-1h1v-1h1v-1h2v-1h1v-1h1v-1h1v-1h2v-1h1v-1h1v-1h1v-1h1v-1h2v-1h1v-1h1v-1h1v-1h1v-1h2v-1h1v-1h1v-1h1v-1h2v-1h1v-1h1v-1h1v-1h2v-1h1v-1h1v-1h1v-1h1v-1h2v-1h1v-1h1v-1h1v-1h1v-1h2v-1h1v-1h1v-1h1v-1h1v-1h2v-1h1v-1h1v-1h1v-1h1v-1h1v-1h1v-1H491v1h-9v1h-8v1h-9v1h-8v1h-9v1h-8v1h-6v1h-3v1h-3v1h-2v1h-3v1h-3v1h-3v1h-3v1h-2v1h-3v1h-3v1h-2v1h-3v1h-3v1h-3v1h-2v1h-3v1h-3v1h-2v1h-3v1h-3v1h-3v1h-2v1h-3v1h-3v1h-2v1h-3v1h-3v1h-3v1h-2v1h-3v1h-4v1H336v1h-9v1h-4v1h-5v1h-4v1h-5v1h-4v1h-4v1h-5v1h-4v1h-5v1h-3v1h-4v1h-4v1h-4v1h-3v1h-4v1h-4v1h-4v1h-4v1h-4v1h-4v1h-4v1h-4v1h-3v1h-4v1h-4v1h-4v1h-4v1h-4v1h-4v1h-4v1h-4v1h-4v1h-4v1h-3v1h-4v1h-5v1h-3v1h-3v1h2v1h3v1h3v1h3v1h3v1h3v1h3v1h3v1h3v1h3v2h-3v1h-3v1h-3v1h-3v1h-3v1h-3v1h-2v1h-2v1h-2v1h-3v1h-3v1h-2v1h-3v1h-3v1h-3v1h-4v1h-3v1h-5v1h-4v1h-5v1h-5v1h-6v1h-6v1h-6v1h-6v1h-6v1h-7v1H95v1H89v1H82v1H76v1H69v1H63v1H56v1H49v1H43v1H36v1H29v1H22v1H15v1H8v1H1v1H0v53H630v-2Z"/><path class="cls-11" d="M257,264v1h-4v1h-4v1h-4v1h-4v1h-4v1h-3v1h-4v1h-4v1h-4v1h-4v1h-4v1h-4v1h-4v1h-4v1h-4v1h-4v1h-3v1h-4v1h-5v1h-3v1h-3v1h5v-1h6v-1h6v-1h6v-1h7v-1h16v-1h9v-1h8v-1h9v-2h-3v-1h-4v-1h-3v-1h2v-1h3v-1h3v-1h2v-1h3v-1h3v-1h2v-1h3v-1h2v-1Z"/><path class="cls-12" d="M398,257v-1h-8v-1h-7v-1h-7v-1h-8v-1h-7v-1h-7v-1h-2v-1h-2v-1h-1v-1h-2v-1H336v1h-4v1h2v1h3v1h3v1h3v1h3v1h3v1h12v1h12v1h12v1h11v1h5v-1Z"/><path class="cls-13" d="M428,270v-1h-8v-1h-7v-1h-8v-1h-7v-1h-7v1h-1v1h-1v1h-2v1h-1v1h-2v1h-1v1h-1v1h-2v1H369v2h-1v2h-1v2h-1v2h-1v2h-1v2h-1v2h-1v2h-1v2h-1v2h-1v2h-1v2h-1v2h-1v2h-1v2h-1v4h2v-1h1v-1h1v-1h1v-1h2v-1h1v-1h1v-1h1v-1h2v-1h1v-1h1v-1h2v-1h1v-1h2v-1h1v-1h2v-1h1v-1h2v-1h1v-1h2v-1h1v-1h2v-1h1v-1h2v-1h1v-1h2v-1h1v-1h2v-1h1v-1h2v-1h1v-1h1v-1h1v-1h2v-1h10v-1h10v-1h9v-1h2v-1Z"/><path class="cls-14" d="M378,275v-1h-9v-1H359v1h-9v1h-9v1h-9v1h14v-1h13v-1h6v1h4v1h5v1h5v1h4v2h1v1h-1v1h-1v1h-1v1h-1v1h-1v1h-1v1h-1v1h-1v1h-1v1h-1v1h-1v1h-1v1h2v-1h2v-1h1v-1h2v-1h1v-1h2v-1h1v-1h2v-1h1v-1h2v-1h1v-1h2v-1h1v-1h2v-1h1v-1h2v-1h1v-1h1v-1h1v-1Z"/><path class="cls-15" d="M491,207v1h-9v1h-8v1h-9v1h-8v1h-9v1h-8v1h-6v1h-3v1h-3v1h-2v1h-3v1h6v-1h7v-1h12v1H438v1h-6v1h-6v1H414v1h-2v1h-3v1h-3v1h2v1h1v1h-2v1h-3v1h-3v1h-2v1h-3v1h-3v1h-3v1h-2v1h-3v1h-3v1h-2v1h-3v1h-3v1h-2v1h-3v1h-3v1h-3v2h31v-1h5v-1h5v-1h4v-1h5v-1h5v-1h10v-1h11v-1h11v-1h11v-1h10v-1h5v-1h1v-1h1v-1h1v-1h1v-2H454v1H429v-1h2v-1h9v-1h10v-1h8v-1h9v-1h3v-1h5v-1h4v-1h4v-1h4v-1h4v-1h4v-1h5v-1h2v-1h1v-1h2v-1h1v-1h2v-1h1v-1h2v-1h1v-1Z"/><path class="cls-16" d="M350,327v-1h-2v-1h-2v-1h-2v-1h-2v-1h-2v-1h-2v-1h-1v-1h-3v-1H323v-1H301v1h-6v-1h-6v-1h-6v-1h-5v-1h-5v-1h-5v-1h-5v-1h-5v-1h-5v-1h-5v-1h-5v-1h-4v-1h-5v-1h-5v-1h-5v-1h-5v-1h-5v-1h-4v-1h-5v-1h-9v1h-3v1h-3v1h-3v1h-2v1h-2v1h-2v1h-3v1h-3v1h-2v1h-3v1h-3v1h-3v1h-4v1h-3v1h-5v1h-4v1h-4v1h2v1h5v1h6v1h6v1h5v1h5v1h6v1h7v1h7v1h7v1h8v1h7v1h7v1h7v1h16v-1h72v-1h21v-1h13v-1Z"/><path class="cls-17" d="M630,391v-1h-2v-1h-2v-1h-1v-1h-2v-1h-2v-1h-3v-1h-3v-1h-2v-1h-2v-1h-3v-1h-2v-1h-2v-1h-2v-1h-2v-1h-3v-1h-2v-1h-2v-1h-3v-1h-2v-1h-3v-1h-2v-1h-2v-1H527v1H433v1H405v1H378v1h-5v-1h-4v-1h-4v-1h-5v-1h-4v-1h-9v1H330v1H314v1H296v1H278v1H260v1H215v-1H179v-1H141v-1H107v-1h-6v-1H93v-1H85v-1H78v-1H71v-1H64v-1H57v-1H50v-1h9v1H84v1h24v1h23v1h12v-1h8v-1h9v-1h9v-1h7v-1h25v-1h22v-1h23v-1h23v-1h20v-1h8v-1h-3v-1h-4v-1h-4v-1h-4v-1h-5v-1h-6v-1h-8v-1h-9v-1h-7v-1h-6v-1h-9v-1h-8v-1h-8v-1h-9v-1h-7v-1h-7v-1h-9v-1h-7v-1H164v-1H150v-1H137v-1H124v-1H109v-1H95v-1H84v-1H73v-1H69v1H63v1H56v1H49v1H43v1H36v1H29v1H22v1H15v1H8v1H1v1H0v53H630v-1Z"/><path class="cls-18" d="M187,302v1h-2v1h-2v1h-2v1h-3v1h-3v1h-2v1h-3v1h-3v1h-3v1h-4v1h-3v1h-5v1h-4v1h-5v1h-5v1h-6v1h-6v1h-6v1h-6v1h-6v1h-7v1H95v1H89v1H82v1H76v1H69v1H63v1H56v1H49v1H43v1H36v1H29v1H22v1H15v1H8v1H1v1H0v2H4v-1H15v-1h9v-1H36v-1H47v-1H58v-1h9v-1H89v-1h2v-1h2v-1h4v-1h2v-1h2v-1h2v-1h2v-1h2v-1h2v-1h7v-1h6v-1h7v-1h8v-1h8v-1h7v1h11v1h5v1h8v-1h-4v-1h-3v-1h-4v-1h-3v-1h-4v-1h2v-1h2v-1h4v-1h3v-1h6v-1h3v-1h2v-1h1v-1h2v-1h1v-1h1v-1h2v-1h1v-2Z"/><path class="cls-19" d="M378,275v-1h-9v-1H359v1h-9v1h-9v1H327v1H317v1H247v1h-7v1h-6v1h-6v1h-6v1h-6v1h-6v1h-4v1h3v1h7v1h7v1h7v1h6v1h8v1h6v1h8v1h6v1h8v1h8v1h7v1h6v1h7v1h7v1h7v1h7v1h7v1h8v1h7v1h8v1h4v-2h2v-1h2v-1h1v-1h1v-1h2v-1h1v-1h2v-1h1v-1h2v-1h1v-1h2v-1h2v-1h1v-1h1v-1h1v-1h1v-1h2v-1h2v-1h1v-1h1v-1h2v-1h2v-1h1v-1h1v-1h2v-1h2v-1h1v-1h2v-1h1v-1h1v-1Z"/></g></g></g></g></svg>